<svg version="1.1" id="Yarn--Streamline-Noto-Emoji" xmlns="http://www.w3.org/2000/svg" xmlns:xlink="http://www.w3.org/1999/xlink" x="0" y="0" viewBox="0 0 32 32" xml:space="preserve" enable-background="new 0 0 128 128" height="32" width="32">
  <desc>
    Yarn Streamline Emoji: https://streamlinehq.com
  </desc>
  <g>
    <path d="M2.023875 14.0615c0 10.382275 11.239125 16.871175 20.230425 11.68005 4.172875 -2.4092 6.743475 -6.861625 6.743475 -11.68005 0 -10.38225 -11.239125 -16.87115 -20.230425 -11.680025C4.594475 4.790675 2.023875 9.243075 2.023875 14.0615" fill="#880E4F" stroke-width="0.25"></path>
    <g>
      <path d="M12.952475 8.92125c-0.031375 0 -0.06535 -0.007825 -0.0967 -0.01045 -0.5514 -0.03135 -0.697725 -0.658525 -0.606275 -1.003475 0.56445 -2.16115 0.28485 -4.0819 -0.64025 -6.535725 -0.19075 -0.50175 0.5697 -0.6324 0.901575 -0.499125 0.318825 0.12805 0.614125 0.587975 0.74215 0.935525 0.7657 2.072325 0.979975 4.24915 0.347575 6.57755 -0.083625 0.313575 -0.3345 0.54355 -0.648075 0.5357Z" fill="#EC407A" stroke-width="0.25"></path>
    </g>
    <g>
      <path d="M14.640625 10.925625c-0.0575 0 -0.115 -0.01045 -0.172475 -0.02875 -0.34235 -0.104525 -0.535725 -0.46515 -0.4312 -0.804875 0.7265 -2.4042 1.256975 -6.3345 -0.42595 -9.287475 -0.1777 -0.310975 0.2744 -0.5148 0.6298 -0.480825 0.815325 0.07315 1.290925 1.29355 1.447725 1.8371 0.73695 2.53745 0.496525 5.92945 -0.4155 8.304875 -0.104525 0.279625 -0.350175 0.467775 -0.6324 0.45995Z" fill="#EC407A" stroke-width="0.25"></path>
    </g>
    <g>
      <path d="M16.38105 12.820225c-0.444275 -0.12805 -0.527875 -0.713425 -0.425975 -1.05575 2.02265 -6.77875 -0.01305 -10.944275 -0.02875 -10.9887 -0.125425 -0.3345 0.97215 -0.7918 1.513075 0.564475 0.0784 0.195975 1.88415 4.72995 -0.151575 10.975625 -0.096675 0.28745 -0.441625 0.640225 -0.906775 0.50435Z" fill="#EC407A" stroke-width="0.25"></path>
    </g>
    <g>
      <path d="M4.872325 22.925625c-0.188175 -0.222125 -0.42335 -0.5749 -0.12545 -0.7735 0.4939 -0.3319 2.1899 -0.870225 3.546175 -2.70995 0.211675 -0.28745 0.5697 -0.420725 0.880675 -0.243025 0.310975 0.175075 0.449475 0.5906 0.243025 0.88065 -1.64635 2.320575 -3.6507 2.94775 -3.731725 2.9948 -0.0993 0.057475 -0.62455 0.07315 -0.8127 -0.148975Z" fill="#EC407A" stroke-width="0.25"></path>
    </g>
    <g>
      <path d="M5.962025 23.889925c-0.135875 -0.339725 0.731725 -0.488675 0.731725 -0.488675 0.38415 -0.14635 1.959925 -0.44165 3.2169 -2.419875 0.190775 -0.300525 0.5723 -0.418125 0.88065 -0.2404 0.310975 0.1777 0.418125 0.5723 0.240425 0.88065 -0.844075 1.4791 -2.493025 2.587125 -3.62195 2.856275 -0.603675 0.143725 -1.314475 -0.2561 -1.44775 -0.587975Z" fill="#EC407A" stroke-width="0.25"></path>
    </g>
    <g>
      <path d="M8.073525 25.826325c-0.399825 -0.211675 -0.5174 -0.598425 -0.263925 -0.68205 1.497375 -0.48345 3.133275 -1.732575 3.9277 -2.90855 0.1986 -0.295275 0.60105 -0.373675 0.89635 -0.172475 0.2953 0.198625 0.371075 0.60105 0.172475 0.89635 -0.932925 1.405925 -1.88415 2.116725 -3.436425 2.79095 -0.2953 0.12805 -0.922475 0.2744 -1.296175 0.075775Z" fill="#EC407A" stroke-width="0.25"></path>
    </g>
    <g>
      <path d="M9.986425 26.40385c0.979975 -0.449475 2.61325 -1.379775 3.55925 -2.966025 0.182925 -0.30575 0.580125 -0.40765 0.885875 -0.224725 0.30575 0.182925 0.407675 0.580125 0.22475 0.885875 -0.763075 1.2805 -1.82405 2.291825 -3.44165 2.8615 -0.786575 0.279625 -1.55225 -0.40505 -1.228225 -0.556625Z" fill="#EC407A" stroke-width="0.25"></path>
    </g>
    <g>
      <path d="M3.968125 21.059775C1.7913 18.493575 1.40715 15.1434 1.966375 11.824575c0.12805 -0.763075 0.407675 -1.238675 0.684675 -1.236075 0.358025 0.00525 0.702975 1.23345 0.59845 1.89985 -0.4704 2.997375 0.3972 5.937275 2.2735 8.223875 0.112375 0.1385 -0.047025 0.606275 -0.44685 0.78135 -0.399825 0.172475 -0.8467 -0.125425 -1.108025 -0.4338Z" fill="#EC407A" stroke-width="0.25"></path>
    </g>
    <g>
      <path d="M5.62755 19.61465c-0.9852 -0.925075 -1.800525 -3.82055 -1.80315 -5.19775 0 -0.358 0.002625 -0.8728 0.360625 -0.8728 0 0 0.79965 0.1228 0.932925 0.8702 0.190775 1.07665 0.7866 3.548775 1.779625 4.800525 0.222125 0.279625 -0.598425 1.029625 -1.270025 0.399825Z" fill="#EC407A" stroke-width="0.25"></path>
    </g>
    <g>
      <path d="M16.3732 28.0476c-1.13675 0.057475 -2.8824 -0.180325 -3.4547 -0.9643 -0.211675 -0.28745 0.16725 -0.559225 0.512175 -0.467775 2.08015 0.56185 3.52005 0.8885 6.177725 -0.402425 0.538325 -0.261325 1.13415 0.01305 0.8676 0.389375 -0.3737 0.530475 -2.05925 1.35365 -4.1028 1.445125Z" fill="#D81B60" stroke-width="0.25"></path>
    </g>
    <g>
      <path d="M14.2408 25.7035c-0.201225 -0.295275 0.3972 -0.7892 0.7526 -0.7317 0.56185 0.08885 0.951225 0.18815 1.343225 0.203825 0.402425 0.0157 0.896325 -0.13065 1.0479 -0.13065 0.358025 0 1.21515 0.352775 0.99565 0.635025 -0.67945 0.872825 -3.504375 0.9512 -4.139375 0.0235Z" fill="#D81B60" stroke-width="0.25"></path>
    </g>
    <g>
      <path d="M21.61275 10.923c-0.32665 0.0392 -0.635025 -0.1777 -0.705575 -0.50435 -0.075775 -0.34755 0.14635 -0.6925 0.4939 -0.7683 1.5392 -0.334475 3.546175 -1.4817 4.7169 -3.324025 0.279625 -0.44165 1.14985 0.38675 0.682075 1.0871 -1.405925 2.114125 -3.248275 3.094075 -5.124575 3.499125 -0.0209 0.002625 -0.041825 0.00785 -0.062725 0.01045Z" fill="#EC407A" stroke-width="0.25"></path>
    </g>
    <g>
      <path d="M21.1659 13.26185c-0.347575 0.041825 -0.6664 -0.2012 -0.71605 -0.551375 -0.04965 -0.3528 0.1934 -0.682075 0.5488 -0.731725 2.532225 -0.363225 5.29965 -2.294425 6.22995 -4.228225 0.1542 -0.321425 1.223 0.627175 0.45995 1.68555 -1.3615 1.88415 -4.03225 3.467775 -6.504375 3.82055 -0.007825 0.005225 -0.01305 0.005225 -0.0183 0.005225Z" fill="#EC407A" stroke-width="0.25"></path>
    </g>
    <g>
      <path d="M21.398475 15.315875c-0.20645 0.023525 -0.4103 0.0418 -0.606275 0.04965 -0.3554 0.015675 -0.65855 -0.261325 -0.674225 -0.61935 -0.015675 -0.358 0.261325 -0.66115 0.61935 -0.6716 2.589725 -0.10975 6.3554 -1.850175 7.523525 -4.01655 0.16985 -0.3136 1.251725 0.5749 0.331875 1.740425 -0.6899 0.875425 -1.777 1.59145 -3.0209 2.216025 -1.34845 0.67945 -2.864125 1.147225 -4.17335 1.3014Z" fill="#EC407A" stroke-width="0.25"></path>
    </g>
    <g>
      <path d="M23.444625 17.082425c-0.182925 0.0209 -0.352775 0.03135 -0.50435 0.026125 -0.358 -0.007825 -0.64025 -0.30575 -0.629775 -0.66115 0.007825 -0.3554 0.303125 -0.64025 0.66115 -0.6298 1.19425 0.02615 4.418975 -1.228225 5.788325 -3.378925 0.193375 -0.3005 0.9068 0.823175 0.135875 1.701225 -1.66725 1.899825 -3.875425 2.756975 -5.451225 2.942525Z" fill="#EC407A" stroke-width="0.25"></path>
    </g>
    <g>
      <path d="M18.461175 14.5136c-0.0784 0 -0.1568 -0.01305 -0.235175 -0.044425 -0.3319 -0.12805 -0.48345 -0.499125 -0.368475 -0.836225 1.330125 -3.901575 1.7953 -8.5009 0.122825 -12.73695 -0.130675 -0.3319 1.1446 -0.376325 1.4817 0.6141 1.58885 4.688175 1.110625 8.4826 -0.399825 12.5906 -0.094075 0.258725 -0.342325 0.4129 -0.60105 0.4129Z" fill="#EC407A" stroke-width="0.25"></path>
    </g>
    <g>
      <path d="M23.3375 7.06585c-0.3319 -0.4155 -1.601925 -1.418975 -2.093225 -1.59145 -0.3371 -0.120225 -0.4547 -1.2805 -0.096675 -1.2805 1.17595 -0.0026 2.788325 1.160275 3.269175 2.273525 0.3554 0.823175 -0.39985 1.44775 -1.079275 0.598425Z" fill="#D81B60" stroke-width="0.25"></path>
    </g>
    <g>
      <path d="M24.9786 6.02055c-1.15765 -1.547025 -2.087975 -2.563575 -4.230825 -3.3162 -0.4939 -0.175075 -0.961675 -0.78135 -0.66115 -0.974725 0.556625 -0.360625 1.594075 0.0784 1.88415 0.2169 1.13415 0.540925 2.184675 1.121075 3.06795 2.148075 0.499125 0.58015 1.084475 1.790075 0.846675 2.054025 -0.360625 0.399825 -0.77875 0.0418 -0.9068 -0.12805Z" fill="#D81B60" stroke-width="0.25"></path>
    </g>
    <g>
      <path d="M25.30265 18.86205c-0.18815 -0.30315 0.85975 -0.73955 0.95385 -1.847575 0.03135 -0.3554 1.113225 -0.773525 1.13675 -0.418125 0.08885 1.385025 -0.399825 1.889375 -0.943375 2.283975 -0.593225 0.425975 -1.027 0.180325 -1.147225 -0.018275Z" fill="#D81B60" stroke-width="0.25"></path>
    </g>
    <g>
      <path d="M27.455975 19.808025c-0.48345 -0.10975 -0.290075 -0.629775 -0.06535 -0.906775 0.85715 -1.050525 0.93555 -1.612375 0.8467 -2.756975 -0.044425 -0.564475 0.418125 -1.068825 0.637625 -0.7892 0.28485 0.36585 0.49915 1.43465 0.2953 2.3127 -0.480825 2.088 -1.562725 2.174225 -1.714275 2.14025Z" fill="#D81B60" stroke-width="0.25"></path>
    </g>
    <path d="M22.556125 7.67475c0.0784 0.1019 0.1542 0.211675 0.18555 0.3345 0.033975 0.125425 0.0183 0.26915 -0.065325 0.36585 -0.0575 0.065325 -0.1359 0.104525 -0.2143 0.1411 -0.14895 0.070575 -0.2979 0.141125 -0.459925 0.169875 -0.162025 0.02875 -0.3371 0.01045 -0.470375 -0.083625 -0.16725 -0.120225 -0.2352 -0.3345 -0.279625 -0.5331 -0.075775 -0.32405 -0.122825 -0.653325 -0.14635 -0.9852 -0.005225 -0.0784 -0.007825 -0.164625 0.02875 -0.2352 0.222125 -0.418125 1.27005 0.635025 1.4216 0.8258Z" fill="#D81B60" stroke-width="0.25"></path>
    <g>
      <path d="M23.3375 24.916925c-1.5366 -0.269175 -3.0784 -0.8702 -4.58625 -1.554875 -0.34755 -0.16725 -0.68205 -0.34235 -1.01655 -0.52005 -0.554 0.3136 -1.149825 0.567075 -1.771775 0.75525 1.64895 0.922475 3.0183 1.4216 4.021775 1.7195 1.7169 0.5122 2.419875 0.418125 2.5662 0.397225 0.564475 -0.08625 1.136775 -0.7265 0.7866 -0.79705Z" fill="#EC407A" stroke-width="0.25"></path>
      <path d="M4.043925 8.75925c-0.169875 -0.3136 -0.42335 -1.09235 -0.42335 -1.09235 -0.449475 -0.054875 -0.81795 0.525275 -0.653325 1.51045 0.0967 0.567075 2.655075 7.01395 10.2178 12.619375 0.993025 0.736925 1.920725 1.3249 2.77525 1.803125 0 0 0.60105 0.397225 1.421625 -0.026125 0.6951 -0.358025 0.350175 -0.7317 0.350175 -0.7317 -6.101925 -3.2143 -10.2805 -7.824075 -13.688175 -14.082775Z" fill="#F06292" stroke-width="0.25"></path>
      <path d="M25.0544 23.497925c-1.847575 -0.590575 -3.64025 -1.29615 -5.35455 -2.145475 -0.34755 0.365875 -0.7291 0.69775 -1.139375 0.99565 0.36325 0.20385 0.723875 0.399825 1.0819 0.5906 1.1263 0.60105 5.631525 2.560975 5.412025 0.559225Z" fill="#EC407A" stroke-width="0.25"></path>
      <path d="M19.69725 21.35245c-6.115 -3.02875 -11.378075 -7.7744 -14.702125 -15.7866 -0.875425 0.193375 -0.78395 1.2204 -0.658525 1.554875 2.97125 7.905075 8.98955 12.2927 14.221275 15.227375 0 0 0.825775 0.4547 1.37195 -0.243025 0.32665 -0.420725 -0.232575 -0.752625 -0.232575 -0.752625Z" fill="#F06292" stroke-width="0.25"></path>
      <path d="M26.36885 21.8124c-1.9364 -0.5514 -3.74215 -1.317075 -5.41725 -2.221275 -0.214275 0.415525 -0.46515 0.810125 -0.747375 1.175975 1.337975 0.679425 2.751725 1.25435 4.23605 1.685525 1.876325 0.54095 2.281375 -0.580125 1.928575 -0.640225Z" fill="#EC407A" stroke-width="0.25"></path>
      <path d="M6.602275 3.9352c-0.214275 -0.4521 -1.11845 0.235175 -0.961675 0.9486 0.97475 3.548775 5.477375 11.53485 14.563625 15.8833 0 0 0.726475 0.3188 1.003475 -0.287475 0.277 -0.608875 -0.253475 -0.8885 -0.253475 -0.8885 -9.5462 -5.077525 -13.17075 -12.350175 -14.35195 -15.655925Z" fill="#F06292" stroke-width="0.25"></path>
      <path d="M27.6624 20.179125c-2.18465 -0.8049 -4.13675 -1.6751 -5.908525 -2.655075 -0.013075 0.101925 -0.02875 0.20385 -0.052275 0.297925 -0.09145 0.3946 -0.214275 0.773525 -0.360625 1.13675 1.544425 0.791825 3.20645 1.46865 4.999125 2.0305 1.432075 0.399825 1.6568 -0.68205 1.3223 -0.8101Z" fill="#EC407A" stroke-width="0.25"></path>
      <path d="M21.753875 17.52405C15.293925 13.97265 12.03 9.9143 8.43155 2.908175c-0.439025 -0.705575 -1.50785 -0.0601 -1.092325 0.6899 3.172475 6.880675 6.559225 11.150725 14.00175 15.363275 0 0 0.5697 0.222125 0.7892 -0.44165 0.1385 -0.418125 0.00785 -0.786575 -0.3763 -0.99565Z" fill="#F06292" stroke-width="0.25"></path>
    </g>
    <path d="M17.442025 31.68c-0.723875 0 -1.4582 -0.0183 -2.192525 -0.0601 -4.52875 -0.250875 -10.1838 -1.808375 -11.892875 -4.64375 -0.5357 -0.885875 -2.16375 -3.58535 1.157675 -9.04705 1.86325 -3.0627 6.339725 -9.606275 5.114125 -15.85715 0 0 -0.169875 -0.60105 0.36585 -0.8284 0.7918 -0.3345 0.91985 0.34495 0.91985 0.34495 1.56535 7.29355 -3.112375 13.9312 -5.069675 17.1481 -2.537475 4.17335 -1.8737 6.240425 -1.15505 7.432075 0.831 1.37455 4.35105 3.546175 10.64635 3.893725 7.9129 0.436425 12.755225 -1.541825 13.25175 -2.25 0.0183 -0.26655 -0.154175 -0.58015 -3.122825 -0.64285 -0.823175 -0.0183 -0.747375 -1.2204 -0.3345 -1.267425 1.207325 -0.141125 3.478225 -0.141125 4.5183 0.6115 0.525275 0.381525 0.744775 0.943375 0.538325 1.596675 -0.619325 1.957325 -6.13065 3.5697 -12.744775 3.5697Zm11.166375 -3.893725Z" fill="#FF80AB" stroke-width="0.25"></path>
  </g>
</svg>